<?xml version="1.0" encoding="UTF-8"?>
<svg width="24px" height="24px" viewBox="0 0 24 24" version="1.1" xmlns="http://www.w3.org/2000/svg" xmlns:xlink="http://www.w3.org/1999/xlink">
    <!-- Generator: Sketch 52.3 (67297) - http://www.bohemiancoding.com/sketch -->
    <title>UI/Icons/calendar</title>
    <desc>Created with Sketch.</desc>
    <defs>
        <path d="M16.8446036,5.42200667 C16.8446036,5.0807936 16.8446036,4.73959184 16.8445925,4.39839008 C16.8445925,4.20799767 16.8459786,4.01758263 16.8441601,3.82720153 C16.8421864,3.62098268 16.7255378,3.47468709 16.5487021,3.47067109 C16.2864867,3.46472062 16.0239941,3.46562564 15.7617454,3.47042221 C15.6179305,3.47305807 15.5052959,3.57376355 15.4739161,3.71579425 C15.4634709,3.76304732 15.4605547,3.81287968 15.4605215,3.86154683 C15.4597896,4.90212112 15.4599559,5.94270673 15.4600003,6.98329233 C15.4600003,7.00402848 15.4595346,7.02482118 15.4608874,7.04547814 C15.4731953,7.2324315 15.5872936,7.36928099 15.7506349,7.37301418 C16.0165316,7.37908909 16.2827277,7.37837639 16.5486577,7.37309337 C16.6865071,7.3703557 16.8004834,7.26837188 16.8306546,7.13436187 C16.8412882,7.08715405 16.8439494,7.03723119 16.844027,6.9885301 C16.8449363,6.4663594 16.8445925,5.94417738 16.8446036,5.42200667 Z M8.54017711,5.42431446 L8.54017711,4.93794838 C8.54016603,4.56846492 8.54114179,4.19898146 8.53977794,3.82950932 C8.53893523,3.59899083 8.4103113,3.46796736 8.1857184,3.46724335 C7.94553539,3.46646278 7.70527476,3.46493556 7.46515828,3.46965295 C7.3163537,3.47258294 7.20467265,3.56817509 7.17038772,3.71365616 C7.15931054,3.76068297 7.15617256,3.81063977 7.1561282,3.85925036 C7.15535203,4.90172518 7.15554053,5.9442 7.15557379,6.98667482 C7.15557379,7.00552175 7.15521897,7.02442524 7.15650521,7.04319298 C7.16943413,7.23222787 7.28140348,7.36886242 7.4440573,7.37279924 C7.70994292,7.37923615 7.97613901,7.37816145 8.24208007,7.37333093 C8.37859885,7.37085345 8.49063472,7.27407347 8.52360015,7.1417943 C8.53571963,7.09319502 8.53938985,7.04126982 8.53948964,6.9908492 C8.54058738,6.46866718 8.54016603,5.94649648 8.54017711,5.42431446 Z M4.39266528,20.5837023 L19.6063811,20.5837023 L19.6063811,9.16460339 L4.39266528,9.16460339 L4.39266528,20.5837023 Z M15.7035541,2 L16.601704,2 C16.6176378,2.00363137 16.6334275,2.00943478 16.6495277,2.01055473 C16.8316525,2.02321362 17.0089318,2.06189168 17.1726612,2.14315066 C17.8490234,2.47883183 18.2194936,3.02147849 18.2295507,3.79977959 C18.2338862,4.1353137 18.2303158,4.47097224 18.230338,4.80657422 L18.230338,4.87458606 L18.3049398,4.87458606 C18.7336789,4.87459737 19.1624733,4.8706945 19.5911237,4.87695041 C19.7208232,4.87885094 19.8541152,4.8938968 19.9789026,4.92861542 C20.5211412,5.07942476 21.0007089,5.61845137 20.9999992,6.33923881 C20.9953532,11.0716385 20.9977261,15.8040382 20.9967614,20.5364492 C20.9967393,20.6302879 20.9927142,20.7258009 20.975849,20.8177164 C20.8451515,21.5301211 20.2872674,21.9999481 19.5769196,21.9999707 C17.749229,22.0000046 15.9215384,21.999982 14.0938479,21.999982 C10.8709092,21.999982 7.64795949,22.0002422 4.42502085,21.9987829 C4.32042521,21.9987263 4.21395564,21.9906604 4.11155547,21.9699016 C3.52266856,21.8505415 2.99925788,21.2759026 3.00000079,20.5523888 C3.00491289,15.8143328 3.00241803,11.0762654 3.00337162,6.33820935 C3.0033938,6.24434804 3.00735231,6.1488577 3.02411778,6.05690824 C3.15330721,5.34829324 3.71340897,4.87483494 4.4178911,4.87462 C4.84663013,4.87448424 5.27536917,4.87458606 5.7041082,4.87458606 L5.7698062,4.87458606 C5.7698062,4.52208293 5.76544851,4.17891277 5.77182427,3.83595755 C5.77460742,3.68614372 5.78036223,3.53165775 5.81736379,3.38804327 C5.99786973,2.68749422 6.42707447,2.22980579 7.12091186,2.04545435 C7.21117038,2.02147147 7.30581985,2.01472911 7.39844016,2 L8.29659001,2 C8.31437559,2.00372187 8.33220553,2.00727405 8.34994676,2.01119955 C8.49530289,2.0433615 8.64629185,2.0595952 8.78499502,2.1106267 C9.31999294,2.30744472 9.92745271,2.87572591 9.92552335,3.7812268 C9.92479152,4.12426121 9.92551226,4.46729562 9.9255677,4.81033003 C9.92557879,4.83033085 9.9255677,4.85033167 9.9255677,4.87121488 L14.0745654,4.87121488 L14.0745654,4.80698148 C14.0746873,4.46017995 14.0720483,4.11333316 14.0757185,3.76657688 C14.0793001,3.42775078 14.1661656,3.11164055 14.3505413,2.82787327 C14.6129896,2.42393139 14.9657407,2.14651053 15.436593,2.04191348 C15.524401,2.02241042 15.6145043,2.01368834 15.7035541,2 Z" id="path-1"></path>
    </defs>
    <g id="Componentes" stroke="none" stroke-width="1" fill="none" fill-rule="evenodd">
        <g id="UI/Icons/calendar">
            <mask id="mask-2" fill="white">
                <use xlink:href="#path-1"></use>
            </mask>
            <use id="Fill-1" fill="#231F20" xlink:href="#path-1"></use>
            <g id="UI/Color/grey-dark" mask="url(#mask-2)" fill="#C4C4C4" fill-rule="nonzero">
                <rect id="Rectangle" x="0" y="0" width="24" height="24"></rect>
            </g>
        </g>
    </g>
</svg>