<?xml version="1.0" encoding="UTF-8"?>
<svg width="24px" height="24px" viewBox="0 0 24 24" version="1.1" xmlns="http://www.w3.org/2000/svg" xmlns:xlink="http://www.w3.org/1999/xlink">
    <!-- Generator: Sketch 52.3 (67297) - http://www.bohemiancoding.com/sketch -->
    <title>UI/Icons/difusión</title>
    <desc>Created with Sketch.</desc>
    <defs>
        <path d="M6,10.3451464 C7.39291914,10.3451464 8.68104185,10.6902893 9.86440678,11.3805855 C11.0231183,12.058555 11.941445,12.9768817 12.6194145,14.1355932 C13.3097107,15.3189582 13.6548536,16.6070809 13.6548536,18 L11.4545455,18 C11.4545455,17.0138626 11.2080148,16.1016991 10.7149461,15.2634823 C10.2218773,14.4375922 9.56240783,13.7781227 8.73651772,13.2850539 C7.89830089,12.7919852 6.98613744,12.5454545 6,12.5454545 L6,10.3451464 Z M6,6 C7.61480006,6 9.16794324,6.31432659 10.6594761,6.94298921 C12.0893754,7.55932512 13.3590083,8.42218243 14.4684129,9.53158706 C15.5778176,10.6409917 16.4406749,11.9106246 17.0570108,13.3405239 C17.6856734,14.8320568 18,16.3851999 18,18 L15.8181818,18 C15.8181818,16.6687145 15.5593246,15.3929183 15.0416025,14.1725732 C14.5485337,13.001535 13.849003,11.9630246 12.9429892,11.0570108 C12.0369754,10.150997 10.998465,9.45146626 9.82742681,8.95839753 C8.60708173,8.44067538 7.33128555,8.18181818 6,8.18181818 L6,6 Z M6,16.2989214 C6,15.8305061 6.1664082,15.4360571 6.49922958,15.1155624 C6.83205097,14.7950677 7.2326633,14.6348228 7.70107858,14.6348228 C8.16949387,14.6348228 8.56394293,14.7950677 8.8844376,15.1155624 C9.20493227,15.4360571 9.3651772,15.8305061 9.3651772,16.2989214 C9.3651772,16.7673367 9.20493227,17.167949 8.8844376,17.5007704 C8.56394293,17.8335918 8.16949387,18 7.70107858,18 C7.2326633,18 6.83205097,17.8335918 6.49922958,17.5007704 C6.1664082,17.167949 6,16.7673367 6,16.2989214 Z" id="path-1"></path>
    </defs>
    <g id="Componentes" stroke="none" stroke-width="1" fill="none" fill-rule="evenodd">
        <g id="UI/Icons/difusión">
            <mask id="mask-2" fill="white">
                <use xlink:href="#path-1"></use>
            </mask>
            <use id="rss_feed---material" fill="#000000" xlink:href="#path-1"></use>
            <g id="UI/Color/grey-dark" mask="url(#mask-2)" fill="#C4C4C4" fill-rule="nonzero">
                <rect id="Rectangle" x="0" y="0" width="24" height="24"></rect>
            </g>
        </g>
    </g>
</svg>