<?xml version="1.0" encoding="UTF-8"?>
<svg width="24px" height="24px" viewBox="0 0 24 24" version="1.1" xmlns="http://www.w3.org/2000/svg" xmlns:xlink="http://www.w3.org/1999/xlink">
    <!-- Generator: Sketch 52.3 (67297) - http://www.bohemiancoding.com/sketch -->
    <title>UI/Icons/solicitudes</title>
    <desc>Created with Sketch.</desc>
    <defs>
        <path d="M17.6870926,8.71875 C17.8956986,8.92708437 18,9.18749844 18,9.5 L18,18.875 C18,19.1875016 17.893091,19.4531239 17.6792699,19.671875 C17.4654487,19.8906261 17.2020876,20 16.8891786,20 L7.14211213,20 C6.82920313,20 6.56062694,19.8906261 6.33637549,19.671875 C6.11212404,19.4531239 6,19.1875016 6,18.875 L6,5.125 C6,4.81249844 6.11212404,4.54687609 6.33637549,4.328125 C6.56062694,4.10937391 6.82920313,4 7.14211213,4 L12.5397653,4 C12.6962198,4 12.8474569,4.03124969 12.9934811,4.09375 C13.0143417,4.10416672 13.0299869,4.11458328 13.0404172,4.125 C13.0508475,4.125 13.0717078,4.13541656 13.1029987,4.15625 C13.1864411,4.20833359 13.2646672,4.26562469 13.3376793,4.328125 L17.6870926,8.71875 Z M13.1186441,5.71875 L13.1186441,8.875 L16.2633638,8.875 L13.1186441,5.71875 Z M16.8735332,18.875 L16.8735332,10 L13.1342894,10 C12.8213804,10 12.5528043,9.89062609 12.3285528,9.671875 C12.1043014,9.45312391 11.9921773,9.18750156 11.9921773,8.875 L11.9921773,5.125 L7.12646675,5.125 L7.12646675,18.875 L16.8735332,18.875 Z M12.9621904,11.96875 C12.8578874,12.0729172 12.7275106,12.125 12.5710561,12.125 L8.56584094,12.125 C8.40938644,12.125 8.27640211,12.070313 8.16688396,11.9609375 C8.05736581,11.851562 8.00260756,11.7187508 8.00260756,11.5625 C8.00260756,11.4062492 8.05736581,11.273438 8.16688396,11.1640625 C8.27640211,11.054687 8.40938644,11 8.56584094,11 L12.5710561,11 C12.7275106,11 12.8604949,11.054687 12.970013,11.1640625 C13.0795312,11.273438 13.1342894,11.4062492 13.1342894,11.5625 C13.1342894,11.7187508 13.0769237,11.8541661 12.9621904,11.96875 Z M15.9661017,14.46875 C15.8617987,14.5729172 15.7314219,14.625 15.5749674,14.625 L8.56584094,14.625 C8.40938644,14.625 8.27640211,14.570313 8.16688396,14.4609375 C8.05736581,14.351562 8.00260756,14.2187508 8.00260756,14.0625 C8.00260756,13.9062492 8.05736581,13.773438 8.16688396,13.6640625 C8.27640211,13.554687 8.40938644,13.5 8.56584094,13.5 L15.5749674,13.5 C15.7314219,13.5 15.8644062,13.554687 15.9739244,13.6640625 C16.0834425,13.773438 16.1382008,13.9062492 16.1382008,14.0625 C16.1382008,14.2187508 16.080835,14.3541661 15.9661017,14.46875 Z M13.9634941,16.96875 C13.8591911,17.0729172 13.7288143,17.125 13.5723598,17.125 L8.56584094,17.125 C8.40938644,17.125 8.27640211,17.070313 8.16688396,16.9609375 C8.05736581,16.851562 8.00260756,16.7187508 8.00260756,16.5625 C8.00260756,16.4062492 8.05736581,16.273438 8.16688396,16.1640625 C8.27640211,16.054687 8.40938644,16 8.56584094,16 L13.5723598,16 C13.7288143,16 13.8617987,16.054687 13.9713168,16.1640625 C14.080835,16.273438 14.1355932,16.4062492 14.1355932,16.5625 C14.1355932,16.7187508 14.0782274,16.8541661 13.9634941,16.96875 Z" id="path-1"></path>
    </defs>
    <g id="Componentes" stroke="none" stroke-width="1" fill="none" fill-rule="evenodd">
        <g id="UI/Icons/solicitudes">
            <mask id="mask-2" fill="white">
                <use xlink:href="#path-1"></use>
            </mask>
            <use id="file-text---anticon" fill="#4A4A4A" xlink:href="#path-1"></use>
            <g id="UI/Color/grey-dark" mask="url(#mask-2)" fill="#C4C4C4" fill-rule="nonzero">
                <rect id="Rectangle" x="0" y="0" width="24" height="24"></rect>
            </g>
        </g>
    </g>
</svg>