<?xml version="1.0" encoding="UTF-8"?>
<svg width="24px" height="24px" viewBox="0 0 24 24" version="1.1" xmlns="http://www.w3.org/2000/svg" xmlns:xlink="http://www.w3.org/1999/xlink">
    <!-- Generator: Sketch 52.3 (67297) - http://www.bohemiancoding.com/sketch -->
    <title>UI/Icons/beneficios</title>
    <desc>Created with Sketch.</desc>
    <defs>
        <path d="M17.875,9 C18.1875016,9 18.4531239,9.10937391 18.671875,9.328125 C18.8906261,9.54687609 19,9.81249844 19,10.125 L19,11.875 C19,12.1875016 18.8906261,12.4531239 18.671875,12.671875 C18.4531239,12.8906261 18.1875016,13 17.875,13 L18,13 L18,17.875 C18,18.1875016 17.8906261,18.4531239 17.671875,18.671875 C17.4531239,18.8906261 17.1875016,19 16.875,19 L7.125,19 C6.81249844,19 6.54687609,18.8906261 6.328125,18.671875 C6.10937391,18.4531239 6,18.1875016 6,17.875 L6,13 L6.125,13 C5.81249844,13 5.54687609,12.8906261 5.328125,12.671875 C5.10937391,12.4531239 5,12.1875016 5,11.875 L5,10.125 C5,9.81249844 5.10937391,9.54687609 5.328125,9.328125 C5.54687609,9.10937391 5.81249844,9 6.125,9 L10,9 C9.44791391,9 8.97656445,8.80468945 8.5859375,8.4140625 C8.19531055,8.02343555 8,7.55208609 8,7 C8,6.44791391 8.19531055,5.97656445 8.5859375,5.5859375 C8.97656445,5.19531055 9.44791391,5 10,5 C10.5520861,5 11.0234355,5.19531055 11.4140625,5.5859375 C11.8046895,5.97656445 12,6.44791391 12,7 C12,6.44791391 12.1953105,5.97656445 12.5859375,5.5859375 C12.9765645,5.19531055 13.4479139,5 14,5 C14.5520861,5 15.0234355,5.19531055 15.4140625,5.5859375 C15.8046895,5.97656445 16,6.44791391 16,7 C16,7.55208609 15.8046895,8.02343555 15.4140625,8.4140625 C15.0234355,8.80468945 14.5520861,9 14,9 L17.875,9 Z M10,7.875 L10.875,7.875 L10.875,7 C10.875,6.76041547 10.7890634,6.55468836 10.6171875,6.3828125 C10.4453116,6.21093664 10.2395845,6.125 10,6.125 C9.76041547,6.125 9.55468836,6.21093664 9.3828125,6.3828125 C9.21093664,6.55468836 9.125,6.76041547 9.125,7 C9.125,7.23958453 9.21093664,7.44531164 9.3828125,7.6171875 C9.55468836,7.78906336 9.76041547,7.875 10,7.875 Z M11.4375,17.875 L11.4375,13 L7.125,13 L7.125,17.875 L11.4375,17.875 Z M11.4375,11.875 L11.4375,10.125 L6.125,10.125 L6.125,11.875 L11.4375,11.875 Z M13.125,7 L13.125,7.875 L14,7.875 C14.2395845,7.875 14.4453116,7.78906336 14.6171875,7.6171875 C14.7890634,7.44531164 14.875,7.23958453 14.875,7 C14.875,6.76041547 14.7890634,6.55468836 14.6171875,6.3828125 C14.4453116,6.21093664 14.2395845,6.125 14,6.125 C13.7604155,6.125 13.5546884,6.21093664 13.3828125,6.3828125 C13.2109366,6.55468836 13.125,6.76041547 13.125,7 Z M16.875,17.875 L16.875,13 L12.5625,13 L12.5625,17.875 L16.875,17.875 Z M17.875,11.875 L17.875,10.125 L12.5625,10.125 L12.5625,11.875 L17.875,11.875 Z" id="path-1"></path>
    </defs>
    <g id="Componentes" stroke="none" stroke-width="1" fill="none" fill-rule="evenodd">
        <g id="UI/Icons/beneficios">
            <mask id="mask-2" fill="white">
                <use xlink:href="#path-1"></use>
            </mask>
            <use id="gift---anticon" fill="#4A4A4A" xlink:href="#path-1"></use>
            <g id="UI/Color/grey-dark" mask="url(#mask-2)" fill="#C4C4C4" fill-rule="nonzero">
                <rect id="Rectangle" x="0" y="0" width="24" height="24"></rect>
            </g>
        </g>
    </g>
</svg>