<?xml version="1.0" encoding="UTF-8"?>
<svg width="24px" height="24px" viewBox="0 0 24 24" version="1.1" xmlns="http://www.w3.org/2000/svg" xmlns:xlink="http://www.w3.org/1999/xlink">
    <!-- Generator: Sketch 52.3 (67297) - http://www.bohemiancoding.com/sketch -->
    <title>UI/Icons/notifications</title>
    <desc>Created with Sketch.</desc>
    <defs>
        <path d="M18.3665437,15.8499385 L20.4329643,17.9163592 L20.4329643,18.9249692 L4,18.9249692 L4,17.9163592 L6.06642066,15.8499385 L6.06642066,10.7576876 C6.06642066,9.15046347 6.46822066,7.76466347 7.27183272,6.600246 C8.09184502,5.40302804 9.23164502,4.62402804 10.6912669,4.26322263 L10.6912669,3.5498155 C10.6912669,3.1234091 10.8388669,2.7585091 11.1340713,2.45510455 C11.4292758,2.1517 11.7900758,2 12.2164822,2 C12.6428886,2 13.0077886,2.1517 13.3111931,2.45510455 C13.6145977,2.7585091 13.7662977,3.1234091 13.7662977,3.5498155 L13.7662977,4.26322263 C15.2095193,4.62402804 16.3411193,5.41122804 17.1611316,6.62484625 C17.9647437,7.78926371 18.3665437,9.16686371 18.3665437,10.7576876 L18.3665437,15.8499385 Z M12.2164822,22 C11.6424736,22 11.1545736,21.8032 10.7527675,21.4095941 C10.3509615,21.0159882 10.1500615,20.5403882 10.1500615,19.9827798 L14.2829028,19.9827798 C14.2829028,20.5403882 14.0779028,21.0159882 13.6678967,21.4095941 C13.2578905,21.8032 12.7740905,22 12.2164822,22 Z" id="path-1"></path>
    </defs>
    <g id="Componentes" stroke="none" stroke-width="1" fill="none" fill-rule="evenodd">
        <g id="UI/Icons/notifications">
            <mask id="mask-2" fill="white">
                <use xlink:href="#path-1"></use>
            </mask>
            <use id="Bell" fill="#9B9B9B" xlink:href="#path-1"></use>
            <g id="UI/Color/grey-dark" mask="url(#mask-2)" fill="#C4C4C4" fill-rule="nonzero">
                <rect id="Rectangle" x="0" y="0" width="24" height="24"></rect>
            </g>
        </g>
    </g>
</svg>