<?xml version="1.0" encoding="UTF-8"?>
<svg width="24px" height="24px" viewBox="0 0 24 24" version="1.1" xmlns="http://www.w3.org/2000/svg" xmlns:xlink="http://www.w3.org/1999/xlink">
    <!-- Generator: Sketch 52.3 (67297) - http://www.bohemiancoding.com/sketch -->
    <title>UI/Icons/reports</title>
    <desc>Created with Sketch.</desc>
    <defs>
        <path d="M6.31841709,17.6875 L18.3420366,17.6875 C18.5248051,17.6875 18.680156,17.7513014 18.808094,17.8789062 C18.936032,18.0065111 19,18.1614574 19,18.34375 C19,18.5260426 18.936032,18.6809889 18.808094,18.8085938 C18.680156,18.9361986 18.5248051,19 18.3420366,19 L6.31841709,19 L6.31841709,17.6875 Z M6.31592689,5.65625 L6.31592689,19 L5,19 L5,5.65625 C5,5.47395742 5.06396803,5.31901105 5.19190601,5.19140625 C5.31984398,5.06380145 5.47519491,5 5.65796345,5 C5.84073198,5 5.99608291,5.06380145 6.12402089,5.19140625 C6.25195886,5.31901105 6.31592689,5.47395742 6.31592689,5.65625 Z M9.80678851,9.17447917 L9.80678851,15.9375 C9.80678851,16.1197926 9.74282048,16.2747389 9.61488251,16.4023438 C9.48694453,16.5299486 9.3315936,16.59375 9.14882507,16.59375 C8.96605653,16.59375 8.8107056,16.5299486 8.68276762,16.4023438 C8.55482965,16.2747389 8.49086162,16.1197926 8.49086162,15.9375 L8.49086162,9.17447917 C8.49086162,8.99218659 8.55482965,8.83724022 8.68276762,8.70963542 C8.8107056,8.58203061 8.96605653,8.51822917 9.14882507,8.51822917 C9.3315936,8.51822917 9.48694453,8.58203061 9.61488251,8.70963542 C9.74282048,8.83724022 9.80678851,8.99218659 9.80678851,9.17447917 Z M16.8067885,6.8046875 L16.8067885,15.9375 C16.8067885,16.1197926 16.7428205,16.2747389 16.6148825,16.4023438 C16.4869445,16.5299486 16.3315936,16.59375 16.1488251,16.59375 C15.9660565,16.59375 15.8107056,16.5299486 15.6827676,16.4023438 C15.5548296,16.2747389 15.4908616,16.1197926 15.4908616,15.9375 L15.4908616,6.8046875 C15.4908616,6.62239492 15.5548296,6.46744855 15.6827676,6.33984375 C15.8107056,6.21223895 15.9660565,6.1484375 16.1488251,6.1484375 C16.3315936,6.1484375 16.4869445,6.21223895 16.6148825,6.33984375 C16.7428205,6.46744855 16.8067885,6.62239492 16.8067885,6.8046875 Z M13.2976501,11.4713542 L13.2976501,15.9375 C13.2976501,16.1197926 13.2336821,16.2747389 13.1057441,16.4023438 C12.9778061,16.5299486 12.8224552,16.59375 12.6396867,16.59375 C12.4569181,16.59375 12.3015672,16.5299486 12.1736292,16.4023438 C12.0456913,16.2747389 11.9817232,16.1197926 11.9817232,15.9375 L11.9817232,11.4713542 C11.9817232,11.2890616 12.0456913,11.1341152 12.1736292,11.0065104 C12.3015672,10.8789056 12.4569181,10.8151042 12.6396867,10.8151042 C12.8102707,10.8151042 12.9625755,10.8789056 13.0966057,11.0065104 C13.230636,11.1341152 13.2976501,11.2890616 13.2976501,11.4713542 Z" id="path-1"></path>
    </defs>
    <g id="Componentes" stroke="none" stroke-width="1" fill="none" fill-rule="evenodd">
        <g id="UI/Icons/reports">
            <mask id="mask-2" fill="white">
                <use xlink:href="#path-1"></use>
            </mask>
            <use id="bar-chart---anticon" fill="#4A4A4A" xlink:href="#path-1"></use>
            <g id="UI/Color/grey-dark" mask="url(#mask-2)" fill="#C4C4C4" fill-rule="nonzero">
                <rect id="Rectangle" x="0" y="0" width="24" height="24"></rect>
            </g>
        </g>
    </g>
</svg>